<?xml version="1.0" encoding="UTF-8"?>
<svg id="Layer_1" data-name="Layer 1" xmlns="http://www.w3.org/2000/svg" viewBox="0 0 1920 479">
  <defs>
    <style>
      .cls-1 {
        fill: #cd0102;
      }
    </style>
  </defs>
  <g>
    <path class="cls-1" d="M116.21,383.6c-18.54,0-35.06-3.76-49.57-11.29-14.51-7.52-25.9-18.21-34.19-32.06-8.29-13.85-12.43-30.26-12.43-49.24v-140.69h68.38v140.69c0,6.54,1.15,12.22,3.44,17.01,2.29,4.8,5.51,8.56,9.65,11.29,4.14,2.73,9.05,4.09,14.72,4.09s10.58-1.36,14.72-4.09c4.14-2.72,7.36-6.49,9.65-11.29,2.29-4.8,3.44-10.47,3.44-17.01v-140.69h69.03v140.69c0,6.54,1.09,12.22,3.27,17.01,2.18,4.8,5.4,8.56,9.65,11.29,4.25,2.73,9.21,4.09,14.89,4.09s10.58-1.36,14.72-4.09c4.14-2.72,7.36-6.49,9.65-11.29,2.29-4.8,3.44-10.47,3.44-17.01v-140.69h68.05v140.69c0,18.98-4.09,35.39-12.27,49.24-8.18,13.85-19.47,24.54-33.86,32.06-14.4,7.53-30.97,11.29-49.73,11.29-8.51,0-16.52-.87-24.05-2.62-7.53-1.74-14.51-4.25-20.94-7.52-6.44-3.27-12.27-7.31-17.5-12.11-5.23,4.58-11.07,8.56-17.5,11.94-6.44,3.38-13.36,5.95-20.78,7.69-7.42,1.74-15.38,2.62-23.88,2.62Z"/>
    <path class="cls-1" d="M459.09,379.34c-18.98,0-35.88-3.27-50.71-9.82-14.84-6.54-26.56-16.08-35.17-28.63-8.62-12.54-12.92-27.86-12.92-45.97,0-19.85,4.25-36.32,12.76-49.4,8.51-13.09,19.57-22.95,33.21-29.61,13.63-6.65,27.97-9.98,43.02-9.98s29.39,3.22,41.72,9.65c12.32,6.44,22.14,15.65,29.45,27.65,7.31,12,10.96,26.39,10.96,43.19,0,4.15-.22,8.89-.65,14.23-.44,5.35-1.09,9.87-1.96,13.58h-104.04c.87,3.71,2.5,6.82,4.91,9.32,2.4,2.51,5.67,4.31,9.82,5.4,4.14,1.09,8.83,1.64,14.07,1.64h60.53v48.75h-54.97ZM421.79,279.55h51.69c0-2.62-.33-5.12-.98-7.53-.65-2.4-1.69-4.63-3.11-6.71-1.42-2.07-3.11-3.93-5.07-5.56-1.96-1.64-4.31-2.89-7.03-3.76-2.73-.87-5.73-1.31-9-1.31-4.15,0-7.8.65-10.96,1.96-3.16,1.31-5.84,3.06-8.02,5.24s-3.87,4.8-5.07,7.85c-1.2,3.06-2.02,6.33-2.45,9.81Z"/>
    <path class="cls-1" d="M555.93,379.34v-229.03h140.69c12.43,0,23.72,2.62,33.86,7.85,10.14,5.24,18.27,12.55,24.37,21.92,6.1,9.38,9.16,20.4,9.16,33.05,0,6.33-1.15,12.43-3.44,18.32-2.29,5.89-5.45,11.29-9.49,16.19-4.04,4.91-8.78,9.22-14.23,12.92,6.54,3.71,12.27,8.34,17.18,13.9,4.91,5.56,8.72,11.78,11.45,18.65,2.72,6.87,4.09,14.12,4.09,21.76,0,12.87-3.11,24.16-9.32,33.86-6.22,9.71-14.56,17.23-25.03,22.58-10.47,5.35-22.03,8.02-34.68,8.02h-144.61ZM626.61,238.66h49.73c3.27,0,6.1-.82,8.51-2.45,2.4-1.64,4.25-3.71,5.56-6.22,1.31-2.5,1.96-5.18,1.96-8.02,0-3.05-.65-5.78-1.96-8.18-1.31-2.4-3.11-4.36-5.4-5.89-2.29-1.52-5.18-2.29-8.67-2.29h-49.73v33.05ZM626.61,325.68h57.91c3.49,0,6.43-.76,8.83-2.29,2.4-1.52,4.31-3.65,5.73-6.38,1.42-2.72,2.13-5.73,2.13-9s-.71-6.16-2.13-8.67c-1.42-2.5-3.33-4.52-5.73-6.05-2.4-1.52-5.35-2.29-8.83-2.29h-57.91v34.68Z"/>
    <path class="cls-1" d="M1070.91,383.6c-12.22,0-23.83-2.45-34.85-7.36-11.02-4.91-19.96-12.21-26.83-21.92-6.87-9.7-10.31-21.86-10.31-36.48v-107.97h62.49v113.86c0,1.96.43,3.65,1.31,5.07.87,1.42,2.07,2.57,3.6,3.44,1.52.87,3.05,1.31,4.58,1.31,1.74,0,3.27-.43,4.58-1.31,1.31-.87,2.4-2.01,3.27-3.44.87-1.42,1.31-3.11,1.31-5.07v-52.02c0-14.4,3.44-26.5,10.31-36.32,6.87-9.82,15.81-17.18,26.83-22.08,11.01-4.91,22.74-7.36,35.17-7.36s24.43,2.45,35.34,7.36c10.9,4.91,19.8,12.27,26.67,22.08,6.87,9.82,10.31,21.92,10.31,36.32v52.02c0,1.96.43,3.65,1.31,5.07.87,1.42,2.07,2.57,3.6,3.44,1.52.87,3.05,1.31,4.58,1.31,1.74,0,3.32-.43,4.74-1.31,1.42-.87,2.56-2.01,3.44-3.44.87-1.42,1.31-3.11,1.31-5.07v-113.86h62.82v107.97c0,14.62-3.44,26.78-10.31,36.48-6.87,9.71-15.82,17.01-26.83,21.92-11.02,4.91-22.74,7.36-35.17,7.36s-23.83-2.45-34.84-7.36c-11.02-4.91-20.01-12.21-26.99-21.92-6.98-9.7-10.47-21.86-10.47-36.48v-52.02c0-2.18-.44-3.98-1.31-5.4-.87-1.42-2.02-2.56-3.44-3.44-1.42-.87-3-1.31-4.74-1.31-1.53,0-3.06.44-4.58,1.31-1.53.87-2.73,2.02-3.6,3.44-.87,1.42-1.31,3.22-1.31,5.4v52.02c0,14.62-3.44,26.78-10.31,36.48-6.87,9.71-15.82,17.01-26.83,21.92-11.02,4.91-22.63,7.36-34.84,7.36Z"/>
    <path class="cls-1" d="M1334.29,379.34v-238.84h62.49v238.84h-62.49Z"/>
    <path class="cls-1" d="M1456.33,192.52c-9.16,0-17.01-3.32-23.56-9.98-6.54-6.65-9.82-14.45-9.82-23.39s3.27-17.06,9.82-23.72c6.54-6.65,14.4-9.98,23.56-9.98s17.01,3.33,23.56,9.98c6.54,6.66,9.82,14.56,9.82,23.72s-3.27,16.74-9.82,23.39c-6.54,6.66-14.39,9.98-23.56,9.98ZM1424.92,379.34v-169.48h62.82v169.48h-62.82Z"/>
    <path class="cls-1" d="M1515.54,379.34v-97.5c0-14.61,3.71-27.65,11.12-39.1,7.41-11.45,17.78-20.45,31.08-26.99,13.3-6.54,28.79-9.82,46.46-9.82s32.93,3.27,45.8,9.82c12.87,6.54,22.74,15.54,29.61,26.99,6.87,11.45,10.31,24.49,10.31,39.1v97.5h-62.82v-93.57c0-4.14-.98-8.02-2.95-11.61-1.96-3.6-4.74-6.54-8.34-8.83-3.6-2.29-7.91-3.44-12.92-3.44s-9.44,1.15-13.25,3.44c-3.82,2.29-6.71,5.23-8.67,8.83-1.96,3.6-2.94,7.47-2.94,11.61v93.57h-62.49Z"/>
    <path class="cls-1" d="M1743.91,445.76v-53.66h80.16c3.93,0,7.08-1.04,9.49-3.11,2.4-2.08,3.6-4.86,3.6-8.34v-29.45h-1.96c-2.84,3.71-6.38,7.25-10.63,10.63-4.25,3.38-9.38,6.05-15.38,8.02-6,1.96-13.14,2.94-21.43,2.94-14.84,0-27.81-3.54-38.93-10.63-11.12-7.09-19.74-16.63-25.85-28.63-6.11-11.99-9.16-25.19-9.16-39.59,0-15.49,3.49-29.94,10.47-43.35,6.98-13.41,17.34-24.21,31.08-32.39,13.74-8.18,30.54-12.27,50.39-12.27,18.76,0,35.17,3.87,49.24,11.62,14.07,7.75,25.08,18.49,33.04,32.23,7.96,13.74,11.94,29.67,11.94,47.77v95.86c0,16.14-4.8,28.9-14.4,38.28-9.6,9.38-23.02,14.07-40.24,14.07h-101.43ZM1807.06,322.41c5.45,0,10.36-1.31,14.72-3.93,4.36-2.62,7.8-6.16,10.31-10.63,2.5-4.47,3.76-9.32,3.76-14.56,0-5.67-1.26-10.8-3.76-15.38-2.51-4.58-5.95-8.23-10.31-10.96-4.37-2.72-9.27-4.09-14.72-4.09s-10.42,1.31-14.89,3.93c-4.47,2.62-7.96,6.22-10.47,10.8-2.51,4.58-3.76,9.71-3.76,15.38s1.25,10.42,3.76,14.89c2.51,4.47,6,8.02,10.47,10.63,4.47,2.62,9.43,3.93,14.89,3.93Z"/>
  </g>
  <g>
    <path class="cls-1" d="M982.23,159.74l-20.56,39.45c-1.51,2.91-5.37,3.6-7.81,1.4l-.02-.02c-1.45-1.32-2-3.37-1.4-5.25l37.06-115.09c1.92-5.99-6.69-9.35-9.32-3.64l-41.35,89.31c-2.21,4.78-6.95,7.6-11.89,7.6-1.87,0-2.16-.41-3.97-1.27-6.13-2.91-7.39-10.04-5.03-16.4l38.98-115.74c2.2-5.87-6.2-9.63-9.13-4.08l-68.78,133.57c-1.04,1.98-3.07,3.12-5.19,3.12-.88,0-1.76-.2-2.6-.62-2.64-1.33-3.89-4.42-2.9-7.21l11.73-32.76c2.05-5.73-5.99-9.47-9.04-4.21l-40.56,69.51c-.41.69-.98,1.27-1.67,1.69-29.04,17.69-48.42,49.67-48.42,86.16,0,23.77,8.22,45.61,22,62.86.77.97,1.17,2.18,1.07,3.42l-2.83,36.76c-.37,4.85,3.64,8.88,8.49,8.52l13.13-.96c9.83-.73,19.54,2.6,26.86,9.22l6.46,5.84c3.2,2.91,8.13,2.7,11.11-.44l22.03-23.42c.81-.86,1.9-1.38,3.07-1.5,50.76-5.26,90.34-48.16,90.34-100.31,0-15.03-3.29-29.3-9.18-42.11-.46-1.01-.58-2.13-.32-3.21l18.95-76.67c1.43-5.76-6.56-8.78-9.3-3.51ZM875.82,354.99c-33.97-2.56-61.47-29.82-64.3-63.77-2.23-26.72,10.66-50.69,31.05-64.25,11.08-7.39,24.37-11.68,38.65-11.68,32.62,0,60.09,22.45,67.79,52.71,1.42,5.51,2.16,11.29,2.16,17.24,0,40.35-34.35,72.84-75.35,69.75Z"/>
    <g>
      <path class="cls-1" d="M880.25,286.98c-10.42,10.46-28.44-1.6-18.18-13.74,10.06-11.91,29.49,2.4,18.18,13.74Z"/>
      <path class="cls-1" d="M847.28,234.42c17.2-3.54,11.67,13.66-1.68,14.45-14.07.83-6.95-12.68,1.68-14.45Z"/>
      <path class="cls-1" d="M878.01,225.99c19.53-3.34,16.91,15.14-.89,12.8-10.96-1.44-7.97-11.28.89-12.8Z"/>
    </g>
  </g>
</svg>