<?xml version="1.0" encoding="UTF-8"?>
<svg id="Layer_1" data-name="Layer 1" xmlns="http://www.w3.org/2000/svg" viewBox="0 0 283 479">
  <defs>
    <style>
      .cls-1 {
        fill: #cd0102;
      }
    </style>
  </defs>
  <path class="cls-1" d="M246.08,166.43l-23.71,45.48c-1.74,3.36-6.19,4.14-9,1.61l-.02-.02c-1.67-1.52-2.31-3.88-1.61-6.06l42.72-132.68c2.21-6.9-7.71-10.78-10.75-4.2l-47.67,102.96c-2.55,5.51-8.01,8.76-13.71,8.76-2.16,0-2.49-.47-4.58-1.46-7.07-3.36-8.51-11.57-5.79-18.9L216.9,28.48c2.53-6.77-7.15-11.1-10.52-4.71l-79.29,153.99c-1.2,2.29-3.54,3.6-5.98,3.6-1.01,0-2.03-.23-3-.71-3.04-1.54-4.48-5.1-3.34-8.31l13.52-37.77c2.36-6.6-6.9-10.91-10.43-4.86l-46.75,80.14c-.47.8-1.13,1.46-1.92,1.95-33.48,20.39-55.82,57.26-55.82,99.33,0,27.41,9.47,52.58,25.36,72.47.89,1.12,1.34,2.52,1.23,3.94l-3.26,42.38c-.43,5.59,4.2,10.24,9.79,9.83l15.13-1.11c11.33-.84,22.52,3,30.96,10.63l7.45,6.73c3.69,3.36,9.38,3.11,12.81-.51l25.4-26.99c.93-.99,2.19-1.59,3.53-1.73,58.52-6.06,104.15-55.52,104.15-115.65,0-17.32-3.79-33.78-10.58-48.55-.53-1.16-.67-2.46-.37-3.7l21.84-88.39c1.65-6.64-7.56-10.13-10.73-4.05ZM123.41,391.52c-39.16-2.95-70.86-34.38-74.13-73.51-2.57-30.8,12.29-58.43,35.79-74.07,12.77-8.51,28.09-13.47,44.56-13.47,37.6,0,69.28,25.88,78.15,60.76,1.63,6.36,2.49,13.02,2.49,19.88,0,46.52-39.6,83.97-86.86,80.41Z"/>
  <g>
    <path class="cls-1" d="M128.52,313.12c-12.02,12.06-32.79-1.84-20.96-15.84,11.6-13.73,34,2.76,20.96,15.84Z"/>
    <path class="cls-1" d="M90.5,252.53c19.83-4.08,13.45,15.75-1.94,16.66-16.22.96-8.01-14.62,1.94-16.66Z"/>
    <path class="cls-1" d="M125.93,242.8c22.51-3.85,19.49,17.45-1.02,14.76-12.63-1.66-9.18-13.01,1.02-14.76Z"/>
  </g>
</svg>