<?xml version="1.0" encoding="UTF-8"?>
<svg id="Layer_1" xmlns="http://www.w3.org/2000/svg" version="1.1" viewBox="0 0 466.7 666.7">
  <!-- Generator: Adobe Illustrator 29.1.0, SVG Export Plug-In . SVG Version: 2.1.0 Build 142)  -->
  <defs>
    <style>
      .st0 {
        fill: #fff;
      }
    </style>
  </defs>
  <g id="Interface__x2F__Download">
    <g id="Vector">
      <path class="st0" d="M433.3,666.7H33.3c-18.4,0-33.3-14.9-33.3-33.3s14.9-33.3,33.3-33.3h400c18.4,0,33.3,14.9,33.3,33.3s-14.9,33.3-33.3,33.3ZM233.3,533.3c-.5,0-1.1,0-1.6,0-3.6-.2-7.1-.9-10.4-2.2,0,0,0,0,0,0,0,0,0,0,0,0-3.9-1.5-7.7-3.8-10.9-6.9-.2-.2-.4-.4-.6-.6L43.1,356.9c-13-13-13-34.1,0-47.1,13-13,34.1-13,47.1,0l109.8,109.8V33.3c0-18.4,14.9-33.3,33.3-33.3s33.3,14.9,33.3,33.3v386.2l109.8-109.8c13-13,34.1-13,47.1,0,13,13,13,34.1,0,47.1l-166.7,166.7s0,0,0,0c-3.3,3.3-7.2,5.8-11.2,7.4-3.3,1.3-6.9,2.1-10.6,2.3-.5,0-1.1,0-1.6,0Z"/>
    </g>
  </g>
</svg>