<?xml version="1.0" encoding="UTF-8"?>
<svg id="Layer_1" data-name="Layer 1" xmlns="http://www.w3.org/2000/svg" viewBox="0 0 163.38 163.38">
  <defs>
    <style>
      .cls-1, .cls-2 {
        fill: #fff;
      }

      .cls-2 {
        fill-rule: evenodd;
      }

      .cls-3 {
        fill: #cd0102;
      }
    </style>
  </defs>
  <circle class="cls-3" cx="81.69" cy="81.69" r="81.69"/>
  <g>
    <g>
      <rect class="cls-1" x="29.35" y="75.64" width="3.97" height="26.35"/>
      <path class="cls-1" d="M143.97,67.38l-.06,44.82c0,.52-.21,1.01-.57,1.39l-6.45,6.58v3.55c0,1.09-.89,1.99-1.99,1.99H31.33c-1.09,0-1.99-.89-1.99-1.99v-3.47h3.97v1.48h99.6v-2.37c0-.53.2-1.02.57-1.39l6.45-6.59.06-43.2-6.51-6.65c-.37-.37-.57-.87-.57-1.39v-18.5H33.32v10.31h-3.97v-12.29c0-1.1.89-1.99,1.99-1.99h103.58c1.09,0,1.99.88,1.99,1.99v19.67l6.51,6.65c.37.38.57.87.57,1.4Z"/>
    </g>
    <g>
      <circle class="cls-1" cx="132.36" cy="71.84" r="3.17"/>
      <circle class="cls-1" cx="132.36" cy="108.28" r="3.17"/>
      <circle class="cls-1" cx="51.57" cy="114.89" r="3.17"/>
      <circle class="cls-1" cx="51.57" cy="52.19" r="3.17"/>
    </g>
    <path class="cls-1" d="M74.33,115.91h33.01s0,7.81,0,7.81h-33.01s0-7.81,0-7.81Z"/>
    <path class="cls-1" d="M103.5,39.65h31.45s0,7.56,0,7.56h-31.45s0-7.56,0-7.56Z"/>
    <path class="cls-1" d="M111.37,115.91h23.58s0,7.81,0,7.81h-23.58s0-7.81,0-7.81Z"/>
    <path class="cls-1" d="M58.56,39.65h40.93s0,7.56,0,7.56h-40.93s0-7.56,0-7.56Z"/>
    <path class="cls-1" d="M121.04,105.73h-48.28c-1.1,0-1.99-.89-1.99-1.99v-16.73c0-1.1.89-1.99,1.99-1.99h48.28c1.1,0,1.99.89,1.99,1.99v16.73c0,1.1-.89,1.99-1.99,1.99ZM74.75,101.76h44.31v-12.76h-44.31v12.76Z"/>
    <g>
      <rect class="cls-1" x="26.12" y="103.98" width="20.17" height="14.3"/>
      <path class="cls-1" d="M19.41,53.93h26.89s0,19.73,0,19.73h-26.89s0-19.73,0-19.73Z"/>
    </g>
    <g>
      <path class="cls-2" d="M71.49,64.88c0,12.67,17.42,17.39,26.03,4.49,8.91,13.38,25.64,7.77,25.64-4.5,0-12.28-16.64-18.19-25.64-4.47-8.53-13.55-26.03-8.18-26.03,4.49h0ZM76.07,64.88c0-9.14,12.92-12.03,18.93,0-6.13,11.58-18.93,9.14-18.93,0ZM100.04,64.88c5.42-12.27,18.69-8.89,18.65.02-.04,8.91-13.39,11.68-18.65-.02h0Z"/>
      <path class="cls-1" d="M80.92,66.12v-2.53s7.67,0,7.67,0v2.53s-7.67,0-7.67,0Z"/>
      <path class="cls-2" d="M108.75,66.09h-2.53s0-2.69,0-2.69h2.53v-2.53s2.69,0,2.69,0v2.53h2.53s0,2.69,0,2.69h-2.53v2.53s-2.69,0-2.69,0v-2.53Z"/>
    </g>
  </g>
</svg>