<?xml version="1.0" encoding="UTF-8"?>
<svg id="Layer_1" data-name="Layer 1" xmlns="http://www.w3.org/2000/svg" viewBox="0 0 163.38 163.38">
  <defs>
    <style>
      .cls-1 {
        fill: #fff;
      }

      .cls-2 {
        fill: #cd0102;
      }
    </style>
  </defs>
  <circle class="cls-2" cx="81.69" cy="81.69" r="81.69"/>
  <path class="cls-1" d="M117.38,49.46c-.27-.27-.48-.43-.75-.54-.21-.11-.48-.16-.8-.16s-.59.05-.8.16-.48.27-.7.48l-.05.05-6.05,6.05c-1.18,1.18-3.05,1.34-4.39.38-.69-.43-1.39-.86-2.19-1.28-.86-.43-1.66-.86-2.41-1.23-.8-.38-1.66-.75-2.52-1.07-.75-.27-1.61-.59-2.62-.91-1.44-.48-2.36-1.82-2.36-3.27v-9.26c0-.32-.05-.64-.16-.86-.11-.21-.27-.48-.48-.64-.21-.21-.43-.38-.64-.48-.21-.11-.54-.16-.86-.16h-11.67c-.32,0-.59.05-.8.11-.21.11-.48.27-.75.54-.21.21-.38.43-.43.64-.11.21-.16.53-.16.86v8.51c0,1.71-1.23,3.11-2.84,3.43-.91.21-1.77.43-2.52.64-.86.27-1.66.53-2.52.86-.8.32-1.66.64-2.46,1.07-.86.38-1.61.8-2.36,1.18-1.39.75-3,.48-4.07-.59l-6.69-6.64q-.05-.05-.05-.11c-.22-.21-.43-.38-.64-.48-.22-.11-.43-.11-.75-.11s-.59.05-.8.16c-.27.11-.48.27-.75.54l-8.14,8.19c-.27.27-.43.48-.54.75-.11.21-.16.48-.16.8s.05.59.16.8c.11.21.27.48.48.7v.05l6.05,6.05c1.18,1.18,1.34,3.05.38,4.39-.43.7-.86,1.39-1.28,2.19-.43.86-.86,1.66-1.23,2.41-.38.8-.75,1.66-1.07,2.52-.27.75-.59,1.61-.91,2.62-.48,1.45-1.82,2.36-3.27,2.36h-9.26c-.32,0-.64.05-.86.16-.22.11-.43.27-.64.43-.22.21-.38.43-.43.64-.11.21-.16.53-.16.86v.94c-2.36.72-4.64,1.77-6.8,3.17v-4.22c0-1.23.21-2.36.64-3.48.43-1.07,1.12-2.03,1.98-2.94.86-.86,1.87-1.55,2.95-1.98,1.07-.43,2.25-.64,3.48-.64h6.85c.05-.16.16-.38.21-.53.38-.96.8-1.93,1.23-2.89.48-1.02.91-1.98,1.39-2.84l.16-.32-4.12-4.18c-.86-.86-1.55-1.82-1.98-2.94-.48-1.12-.7-2.3-.7-3.48s.21-2.35.7-3.48c.48-1.12,1.12-2.09,1.98-2.94l8.14-8.19v-.05c.86-.86,1.82-1.5,2.89-1.98,1.12-.48,2.25-.7,3.48-.7s2.41.27,3.48.7c1.07.48,2.03,1.12,2.84,2.03l4.87,4.82c.16-.05.32-.16.43-.21.91-.43,1.87-.8,2.89-1.23.96-.38,1.98-.7,3-1.02.16-.05.27-.11.43-.11v-5.84c0-1.23.22-2.41.7-3.48.43-1.07,1.12-2.04,1.98-2.89l.05-.05c.86-.86,1.82-1.5,2.89-1.93,1.07-.43,2.25-.7,3.43-.7h11.67c1.23,0,2.36.21,3.48.64,1.12.43,2.09,1.12,2.94,1.98.86.86,1.55,1.87,1.98,2.95s.64,2.25.64,3.48v6.85c.16.05.37.16.54.21.96.38,1.93.8,2.89,1.23,1.02.48,1.98.91,2.84,1.39l.32.16,4.18-4.12c.86-.86,1.82-1.55,2.94-1.98,1.12-.48,2.3-.7,3.48-.7s2.36.21,3.48.7v.11c1.12.48,2.09,1.12,2.94,1.98l8.19,8.14h.05c.86.86,1.5,1.82,1.98,2.89.48,1.12.7,2.25.7,3.48s-.27,2.41-.7,3.48c-.48,1.07-1.12,2.03-2.04,2.84l-4.82,4.87c.05.16.16.32.21.48.43.91.8,1.88,1.18,2.78,0,.05.05.11.05.16.38.91.7,1.93,1.02,3l.11.38h5.89c1.23,0,2.41.21,3.48.7,1.07.43,2.04,1.12,2.89,1.98l.05.05c.86.86,1.5,1.82,1.93,2.89.43,1.07.69,2.25.69,3.43v1.75h-1.67c-2.46-2.26-5.26-4.08-8.32-5.35-.24-.11-.48-.21-.73-.31-4.02-1.53-7.54-2.18-10.68-2.19-.11-.41-.22-.83-.33-1.24-.27-.8-.54-1.66-.91-2.57,0-.05-.05-.11-.05-.16-.32-.86-.64-1.61-.96-2.36-.38-.8-.75-1.61-1.18-2.36-.75-1.39-.48-3,.59-4.07l6.64-6.69c0-.05.05-.05.11-.05.21-.21.38-.43.48-.64.11-.21.11-.43.11-.75s-.05-.59-.16-.8c-.11-.27-.27-.48-.54-.75l-8.19-8.14.05.06h0ZM47.59,125.35c-4.41,3.34-9.35,6-16.61,3.24-4.71-1.79-8.57-5.91-10.72-11.12,18.76,8.5,25.47-15.9,3.26-16.63,6.78-8.16,16.78-8.1,24.86-2.11,3.82,2.82,5.97,4.24,8.17,4.86,1.2.36,2.41.42,3.94.43,5.16.02,32.21-.57,37.68-.69,10.31-.2,15.52-16.05,30.18-10.47,4.71,1.78,8.57,5.91,10.72,11.12-18.76-8.5-25.47,15.9-3.26,16.63-6.78,8.16-16.78,8.1-24.85,2.11-3.54-2.63-5.78-5.73-12.76-5.53-4.84.21-31.84.52-36.69.85-1.93.12-3.21.31-4.43.78-2.2.84-4.2,2.56-9.41,6.53h-.07ZM82.3,64.24c1.77,0,3.53.16,5.25.53,1.66.32,3.32.86,4.98,1.55,1.55.7,3.05,1.5,4.44,2.41s2.68,1.98,3.86,3.16,2.25,2.46,3.16,3.91c.96,1.39,1.77,2.89,2.41,4.44.05.11.05.21.11.27.55,1.34.99,2.72,1.3,4.06-1.53,1.02-2.99,2.13-4.43,3.25h-1.86c-.06-.4-.12-.81-.21-1.21-.27-1.23-.59-2.36-1.02-3.43-.05-.05-.05-.11-.11-.21-.54-1.23-1.12-2.35-1.82-3.37-.7-1.02-1.45-1.98-2.3-2.84-.86-.86-1.82-1.66-2.84-2.3-1.02-.7-2.14-1.28-3.37-1.82-1.12-.48-2.36-.86-3.64-1.12-1.23-.27-2.57-.38-3.91-.38s-2.62.11-3.91.38c-1.23.27-2.35.59-3.43,1.02-.05.05-.11.05-.21.11-1.23.53-2.36,1.12-3.37,1.82s-1.98,1.45-2.84,2.3c-.86.86-1.66,1.82-2.3,2.84-.7,1.02-1.28,2.14-1.82,3.37-.48,1.12-.86,2.36-1.12,3.64-.09.39-.15.8-.21,1.21h-6.89c.09-.88.22-1.75.41-2.6.32-1.66.86-3.32,1.55-4.98.7-1.55,1.5-3.05,2.41-4.44.91-1.39,1.98-2.68,3.16-3.91,1.18-1.18,2.46-2.25,3.85-3.16,1.39-.96,2.89-1.77,4.44-2.41.11-.05.22-.05.27-.11,1.55-.64,3.16-1.12,4.71-1.45,1.71-.32,3.48-.53,5.25-.53h.06Z"/>
</svg>