<?xml version="1.0" encoding="UTF-8"?>
<svg id="Layer_1" data-name="Layer 1" xmlns="http://www.w3.org/2000/svg" viewBox="0 0 163.38 163.38">
  <defs>
    <style>
      .cls-1 {
        fill: #fff;
      }

      .cls-1, .cls-2 {
        fill-rule: evenodd;
      }

      .cls-2 {
        fill: none;
        stroke: #fff;
        stroke-linecap: round;
        stroke-linejoin: round;
        stroke-width: 4px;
      }

      .cls-3 {
        fill: #cd0102;
      }
    </style>
  </defs>
  <circle class="cls-3" cx="81.69" cy="81.69" r="81.69"/>
  <g>
    <path class="cls-2" d="M111.01,57.22c-2.45-3.25-2.87-5.45-3.03-7.85-.14-2.22-.23-4.47-2.16-7.34-3.31-4.92-9.78-2.16-13.27-4.16-2.49-1.42-4.5-3.66-6.28-4.79-1.41-.89-2.81-1.51-4.57-1.43-1.77-.08-3.17.54-4.57,1.44-1.79,1.13-3.8,3.37-6.28,4.79-3.49,1.99-9.96-.76-13.27,4.16-1.93,2.87-2.02,5.12-2.17,7.34-.15,2.39-.58,4.6-3.03,7.84-4.06,5.37-4.91,8.95-2.8,12.67,1.43,2.54,4.43,3.95,5.12,5.56,1.48,3.42-.16,6.01,1.87,10,1.41,2.77,3.58,4.59,6.47,5.52,2.43.79,4.88-.35,6.83.47,3.43,1.44,5.95,4.79,8.68,5.64,1.05.32,2.1.49,3.16.48,1.05.01,2.1-.16,3.15-.48,2.73-.85,5.25-4.2,8.68-5.64,1.96-.82,4.4.31,6.83-.47,2.9-.93,5.06-2.75,6.47-5.52,2.02-3.99.38-6.58,1.87-10,.69-1.61,3.7-3.02,5.12-5.56,2.09-3.72,1.25-7.3-2.82-12.67ZM81.6,85.46c-11.24,0-20.36-9.11-20.36-20.35.01-11.24,9.12-20.36,20.36-20.36s20.35,9.12,20.35,20.36-9.11,20.35-20.35,20.35Z"/>
    <path class="cls-1" d="M116.54,123.74l-9.4-1.69-4.67,8.36c-3.39,4.19-5.54-2.7-6.49-5.11l-9.08-17.13c2.1-.72,4.62-2.82,7.21-5.17,5.17.11,10-.79,13.54-5.3l10.43,20.16.91,1.94c.71,2.51.34,4.17-2.45,3.94Z"/>
    <path class="cls-1" d="M76.49,108.17l-9.08,17.13c-.94,2.41-3.09,9.3-6.48,5.11l-4.67-8.36-9.42,1.69c-2.78.23-3.16-1.43-2.44-3.94l.9-1.94,10.45-20.16c3.54,4.51,8.36,5.41,13.53,5.3,2.59,2.35,5.12,4.45,7.21,5.17Z"/>
    <path class="cls-1" d="M83.49,55.93l1.46,4.49c.13.4.5.67.92.67h4.72c1.93,0,2.73,2.47,1.17,3.6l-3.82,2.78c-.34.25-.48.69-.35,1.09l1.46,4.49c.6,1.83-1.5,3.36-3.06,2.23l-3.82-2.78c-.34-.25-.8-.25-1.14,0l-3.82,2.78c-1.56,1.13-3.66-.39-3.06-2.23l1.46-4.49c.13-.4-.01-.84-.35-1.09l-3.82-2.78c-1.56-1.13-.76-3.6,1.17-3.6h4.72c.42,0,.79-.27.92-.67l1.46-4.49c.6-1.83,3.19-1.83,3.79,0Z"/>
  </g>
</svg>