<?xml version="1.0" encoding="UTF-8"?>
<svg id="Layer_1" data-name="Layer 1" xmlns="http://www.w3.org/2000/svg" viewBox="0 0 163.38 163.38">
  <defs>
    <style>
      .cls-1 {
        fill: #fff;
      }

      .cls-2 {
        fill: #cd0102;
      }
    </style>
  </defs>
  <circle class="cls-2" cx="81.69" cy="81.69" r="81.69"/>
  <path class="cls-1" d="M83.68,53.02c-.85.61-1.63,1.43-2.31,2.5-.03.06-.08.1-.13.13-.21.13-.5.07-.63-.13-.68-1.07-1.47-1.89-2.31-2.5-.9-.66-1.89-1.08-2.9-1.28h-.02c-.99-.2-2-.2-2.97-.03-1.03.18-2.02.55-2.91,1.08-.89.51-1.69,1.18-2.35,1.95-.64.74-1.16,1.6-1.5,2.51h0c-.06.14-.11.29-.15.45-.04.14-.09.3-.11.46-.04.2-.21.35-.43.36-1.05.15-2.09.54-3.06,1.11-.99.59-1.91,1.38-2.7,2.34-.78.95-1.44,2.09-1.91,3.33-.44,1.17-.7,2.47-.76,3.84,0,.18,0,.35,0,.53,0,.16,0,.33,0,.51,0,.15-.06.3-.19.4-.64.46-1.22.94-1.74,1.43-.52.51-.99,1.03-1.38,1.57-.65.89-1.12,1.81-1.45,2.74-.33.97-.5,1.96-.51,2.94,0,.94.11,1.87.38,2.77.27.91.68,1.81,1.2,2.64h0c.3.48.64.94,1,1.38.37.45.78.87,1.22,1.27.11.11.17.27.14.42-.12.59-.19,1.18-.21,1.76-.02.59.02,1.18.1,1.75.15,1.05.46,2.05.89,2.97.46.99,1.05,1.89,1.74,2.68.2.23.41.46.62.67l.95-3.58c-.2-.31-.38-.64-.54-.98-.31-.67-.53-1.38-.64-2.12v-.02c-.08-.55-.1-1.12-.03-1.7.06-.55.17-1.12.37-1.69v-.02c.11-.32.11-.66.02-.95v-.02c-.11-.31-.31-.59-.59-.78l-.02-.02c-.5-.37-.95-.77-1.35-1.21-.41-.44-.77-.9-1.07-1.39-.36-.59-.64-1.21-.83-1.86-.18-.63-.28-1.27-.27-1.92,0-.67.12-1.34.36-2.01.23-.64.55-1.27,1.01-1.89.38-.52.86-1.04,1.42-1.53.54-.48,1.15-.93,1.86-1.36.26-.15.45-.37.57-.63v-.02c.13-.26.18-.55.14-.84,0-.03,0-.07,0-.1v-.02c-.04-.28-.07-.55-.08-.81-.02-.29-.02-.58,0-.86.04-1.03.24-1.99.55-2.86.34-.93.83-1.77,1.41-2.48.48-.59,1.03-1.08,1.6-1.47.57-.38,1.17-.66,1.79-.81h0c.24-.07.5.07.56.3.49,1.53,1.1,2.5,2.26,3.58l.05.04c.29.27.67.39,1.03.37s.73-.16.99-.46l.02-.03c.27-.29.39-.67.37-1.03s-.17-.73-.47-1.02c-.94-.87-1.15-1.41-1.43-2.29-.33-1.01-.28-2,.05-2.88.22-.6.56-1.16,1-1.66.43-.5.95-.93,1.53-1.27l.02-.02c.59-.34,1.24-.59,1.91-.72.64-.11,1.29-.12,1.91,0,.9.19,1.77.66,2.54,1.47.68.71,1.29,1.7,1.76,3v.02c.17.51.71.81,1.33.92.29.06.58.07.87.06h0c.29-.02.58-.07.85-.15.47-.15.84-.41.92-.73v-.18c0-.9.54-1.87,1.29-2.66.81-.86,1.9-1.54,2.82-1.73.58-.11,1.16-.12,1.74-.04.59.1,1.17.29,1.72.55l.05.02c.55.29,1.07.64,1.51,1.07.44.42.81.9,1.1,1.43.45.82.65,1.76.51,2.75-.12.87-.15,1.42-.89,2.29h0c-.26.31-.37.7-.33,1.08.03.36.2.71.49.96l.05.04c.3.25.68.35,1.05.32.36-.03.71-.2.96-.49l.04-.06c.75-.9.99-1.55,1.34-2.68h0c.06-.17.21-.3.41-.32.33-.02.67,0,1,.05.34.06.69.14,1.03.26.65.22,1.3.55,1.91.98.59.42,1.16.92,1.65,1.51v.02c.51.6.94,1.28,1.27,2.01.3.69.51,1.43.59,2.2.06.51.06,1.06,0,1.6-.06.51-.17,1.03-.35,1.56v.03c-.11.33-.11.68,0,.98.11.31.31.59.6.78l.02.02c.55.41,1.03.86,1.46,1.32.44.48.81.99,1.12,1.52.34.59.61,1.2.77,1.82.17.62.25,1.25.23,1.87-.02.64-.14,1.29-.37,1.91-.22.6-.54,1.2-.96,1.78h0c-.38.53-.87,1.05-1.44,1.54-.55.47-1.18.91-1.91,1.34l-.02.02c-.29.16-.51.42-.63.71-.12.29-.16.61-.1.92v.07c.14,1.03.1,2.03-.07,2.95l1.8,4.03c.4-.75.73-1.55.97-2.4.34-1.21.51-2.53.46-3.91-.02-.15.06-.31.2-.41.68-.46,1.27-.94,1.8-1.44.54-.51,1.02-1.05,1.43-1.6h0c.63-.85,1.09-1.72,1.41-2.62.33-.93.5-1.88.53-2.83.02-.91-.09-1.82-.32-2.71-.24-.9-.6-1.77-1.08-2.59l-.02-.02c-.31-.54-.68-1.06-1.09-1.56-.41-.51-.87-.97-1.36-1.42-.11-.1-.18-.27-.15-.43.11-.54.18-1.08.2-1.61.02-.54,0-1.08-.05-1.6-.11-1.09-.41-2.12-.83-3.09-.45-1.02-1.04-1.96-1.74-2.78-.68-.8-1.45-1.5-2.28-2.08-.83-.58-1.71-1.03-2.61-1.34h-.02c-.48-.17-.96-.29-1.44-.37h-.02c-.47-.08-.94-.11-1.4-.11-.21.02-.42-.12-.47-.34-.08-.32-.18-.64-.3-.94-.12-.31-.27-.62-.43-.92-.42-.78-.98-1.5-1.63-2.12-.67-.64-1.43-1.17-2.24-1.59-.84-.42-1.75-.72-2.7-.86-.9-.12-1.81-.11-2.71.08-.99.27-1.99.68-2.9,1.34h0ZM73.94,106.47c-.07-.03-.15-.08-.22-.14-.89-.7-1.87-1.5-2.71-2.18-1.23-1.01-2.65-2.18-3.63-3-.68-.55-1.44-.94-2.17-1.09-.47-.08-.89-.08-1.23.05-.27.12-.51.33-.66.68-.2.46-.3,1.09-.25,1.97.05.77.33,1.62.68,2.44.52,1.2,1.25,2.31,1.78,3.01.03.05.07.08.08.14l10.66,15.22c.14.2.22.42.24.64.22,1.75.59,3.08,1.13,3.9.41.6.9.9,1.56.89h16.76c1.04-.02,1.99-.32,2.86-.93.96-.66,1.82-1.69,2.61-3.06.02-.02.03-.05.05-.07.3-.52.71-1.2,1.09-1.83,1.7-2.79,3.19-5.24,3.35-8.7l-.1-4.77c-.02-.07-.02-.14-.02-.2s0-.52.02-1.13c.03-3.17.08-7.07-2.81-7.55h-1.87c-.02.89-.07,1.8-.12,2.67-.05.79-.1,1.53-.1,2.26,0,.77-.62,1.4-1.4,1.4s-1.4-.62-1.4-1.4c0-.73.05-1.56.1-2.44.19-2.98.41-6.39-1.97-6.81h-1.85c-.1,0-.2-.02-.3-.03.02,1.08-.05,2.18-.12,3.27-.03.79-.08,1.53-.08,2.25,0,.77-.62,1.4-1.4,1.4s-1.4-.62-1.4-1.4c0-.73.05-1.56.1-2.44.19-2.98.41-6.39-1.97-6.81h-1.85c-.14,0-.25-.02-.37-.05v5.43c0,.77-.62,1.4-1.4,1.4s-1.4-.62-1.4-1.4v-16.46c0-2.44-.99-3.99-2.27-4.63-.47-.24-.98-.35-1.47-.35s-.99.12-1.47.35c-1.26.64-2.24,2.18-2.24,4.69v27.43c0,.77-.62,1.4-1.4,1.4s-1.4-.62-1.4-1.4v-2.59h0ZM86.99,89.88c.12-.03.24-.05.37-.05h1.94c.1,0,.22.02.32.03,2.57.41,3.74,1.91,4.21,3.85.19-.08.39-.14.59-.14h1.94c.1,0,.22.02.32.03,2.78.43,3.89,2.13,4.29,4.29.07-.02.14-.02.22-.02h1.94c.1,0,.22.02.33.03,5.32.82,5.25,6.11,5.21,10.37v1.11l.12,4.91v.15c-.2,4.2-1.85,6.9-3.75,10.04-.33.52-.64,1.06-1.08,1.8-.02.02-.02.03-.03.05-.99,1.74-2.13,3.06-3.45,3.98-1.34.93-2.81,1.4-4.42,1.42h-16.79c-1.67.03-2.97-.69-3.93-2.12-.77-1.15-1.28-2.76-1.55-4.77l-10.43-14.92-.06-.05c-.62-.82-1.47-2.12-2.1-3.55-.47-1.08-.82-2.24-.9-3.39-.08-1.36.1-2.44.49-3.3.47-1.06,1.25-1.75,2.18-2.12.86-.35,1.83-.41,2.81-.2,1.17.24,2.39.82,3.41,1.69.84.71,2.26,1.85,3.63,2.98l1.15.94v-21.27c0-3.72,1.65-6.11,3.79-7.19.86-.44,1.78-.66,2.73-.66s1.87.22,2.72.66c2.13,1.08,3.82,3.48,3.82,7.14v8.29h-.03ZM113.67,100.15c-.15-.37-.24-.77-.24-1.19s.09-.82.24-1.19c.15-.37.37-.7.66-.98l.02-.02c.15-.15.33-.3.53-.42.11-.07.21-.12.33-.18v-4.94h-6.08c0-.32,0-.64,0-.97-.02-.18.07-.36.22-.46.63-.43,1.2-.88,1.71-1.34h5.52c.38,0,.73.15.98.41s.41.59.41.98v6.37c.1.05.19.11.29.16.16.11.32.24.46.37l.02.02c.29.29.51.63.68,1.01.15.37.24.77.24,1.19s-.08.8-.23,1.16v.02c-.16.38-.4.72-.68,1.01-.29.29-.63.51-1.01.68-.37.15-.77.24-1.19.24s-.81-.09-1.19-.24c-.38-.15-.73-.39-1.01-.68-.27-.3-.5-.64-.66-1.03h0ZM122.47,84.29h-8.26c.14-.3.27-.61.37-.92.22-.61.37-1.23.47-1.85h7.41c.06-.11.11-.2.17-.3.11-.19.26-.36.41-.51.29-.29.63-.51,1.01-.68.37-.15.77-.24,1.19-.24s.8.08,1.16.23h.02c.38.16.72.4,1.01.68.29.29.51.63.68,1.01.15.37.24.77.24,1.19s-.09.81-.24,1.19c-.15.38-.39.73-.68,1.01s-.63.51-1.01.68c-.37.15-.77.24-1.19.24s-.8-.08-1.16-.23h-.02c-.38-.16-.72-.4-1.01-.68-.15-.15-.29-.31-.4-.5l-.02-.02c-.06-.1-.11-.2-.16-.3h0ZM125.09,76.72h-10.39c-.27-.88-.64-1.73-1.11-2.54l-.02-.02c-.04-.07-.08-.13-.11-.2h10.26v-9.04c-.08-.05-.15-.1-.24-.15-.15-.11-.3-.23-.43-.36-.29-.29-.51-.63-.68-1.01-.15-.37-.24-.77-.24-1.19s.09-.82.24-1.19c.15-.38.39-.72.68-1.01.29-.29.63-.51,1.01-.68.37-.15.77-.24,1.19-.24s.81.09,1.19.24c.38.15.73.39,1.01.68.29.29.51.63.68,1.01.15.37.24.77.24,1.19s-.08.8-.23,1.16v.02c-.16.38-.4.72-.68,1.01-.17.17-.37.33-.59.46-.11.07-.25.14-.37.2v10.27c0,.38-.15.73-.41.98-.26.25-.6.41-.99.41h0ZM114.24,70.03h-3.54c.1-.51.15-1.03.17-1.55.02-.42.02-.82,0-1.22h1.99v-4.09c-.11-.06-.21-.11-.31-.18-.19-.11-.36-.26-.52-.42h0c-.29-.29-.51-.63-.68-1.01-.15-.37-.24-.77-.24-1.18s.09-.81.24-1.19c.15-.37.37-.7.65-.99l.02-.02c.29-.29.63-.51,1.01-.68.37-.15.77-.24,1.19-.24s.82.09,1.19.24c.37.15.7.37.99.66l.02.02c.29.29.51.61.67.99v.02c.15.37.24.77.24,1.19s-.09.82-.24,1.19c-.15.37-.37.71-.65.99l-.02.02c-.15.15-.31.29-.5.41-.1.07-.19.11-.29.16v5.5c0,.38-.15.73-.41.98-.26.25-.61.41-.99.41h0ZM59.38,46.34c.37.15.77.24,1.19.24s.82-.09,1.19-.24c.37-.15.71-.37.98-.66l.02-.02c.15-.15.3-.33.42-.53.07-.11.12-.21.18-.33h4.94v4.27c.87-.46,1.81-.8,2.77-.99v-4.66c0-.38-.15-.73-.41-.98-.25-.25-.59-.41-.98-.41h-6.37c-.05-.1-.1-.19-.16-.29-.11-.16-.24-.32-.37-.46l-.02-.02c-.29-.29-.63-.51-1.01-.68-.37-.15-.77-.24-1.19-.24s-.81.08-1.16.23h-.02c-.38.16-.72.4-1.01.68-.29.29-.51.63-.68,1.01-.15.37-.24.77-.24,1.19s.09.81.24,1.19c.15.38.39.73.68,1.01.31.29.64.51,1.03.68h0ZM75.24,37.54v10.7c.92.27,1.82.69,2.67,1.3l.1.07s0-.05,0-.07v-11.99c.1-.06.2-.11.3-.17.19-.11.36-.26.51-.41.29-.29.51-.63.68-1.01.15-.37.24-.77.24-1.19s-.08-.8-.23-1.16v-.02c-.16-.38-.4-.72-.68-1.01-.29-.29-.63-.51-1.01-.68-.37-.15-.77-.24-1.19-.24s-.81.09-1.19.24c-.38.15-.73.39-1.01.68-.29.29-.51.63-.68,1.01-.15.37-.24.77-.24,1.19s.08.8.23,1.16v.02c.16.38.4.72.68,1.01.15.15.31.29.5.4h.02c.1.07.2.12.3.18h0ZM82.81,34.91v15.64c.37-.38.77-.72,1.18-1.02.51-.37,1.04-.68,1.59-.9v-12.34h9.04c.05.08.1.15.15.24.11.15.23.3.36.43.29.29.63.51,1.01.68.37.15.77.24,1.19.24s.82-.09,1.19-.24c.38-.15.73-.39,1.01-.68s.51-.63.68-1.01c.15-.37.24-.77.24-1.19s-.09-.81-.24-1.19c-.15-.38-.39-.73-.68-1.01-.3-.29-.64-.51-1.03-.68-.36-.15-.76-.24-1.17-.24s-.8.08-1.16.23h-.02c-.38.16-.72.4-1.01.68-.17.17-.33.37-.46.59-.07.11-.14.25-.2.37h-10.26c-.38,0-.73.15-.98.41s-.42.6-.42.99h0ZM89.5,45.77v2.14c.29.02.57.04.86.09.66.1,1.3.26,1.91.49v-1.32h4.09c.06.11.11.21.18.31.11.19.26.36.42.52h0c.29.29.63.51,1.01.68.37.15.77.24,1.18.24s.81-.09,1.19-.24c.37-.15.71-.37.99-.65l.02-.02c.29-.29.51-.63.68-1.01.15-.37.24-.77.24-1.19s-.09-.82-.24-1.19c-.15-.37-.37-.71-.66-.99l-.02-.02c-.29-.29-.61-.51-.99-.67h-.02c-.37-.15-.77-.24-1.19-.24s-.82.09-1.19.24c-.37.15-.7.37-.99.65l-.02.02c-.15.15-.29.31-.41.51-.07.1-.11.19-.16.29h-5.5c-.38,0-.73.15-.98.41-.25.23-.41.57-.41.96h0ZM49.71,59.2c.15.37.24.77.24,1.19s-.09.82-.24,1.19c-.15.37-.37.7-.66.98l-.02.02c-.15.15-.33.3-.53.42-.11.07-.21.12-.33.18v4.94h5.12v.24c0,.19,0,.38.02.59.02.17-.07.34-.21.46-.68.48-1.28.98-1.82,1.49h-4.48c-.38,0-.73-.15-.98-.41-.25-.25-.41-.59-.41-.98v-6.37c-.1-.05-.19-.11-.29-.16-.16-.11-.32-.24-.46-.37l-.02-.02c-.29-.29-.51-.63-.68-1.01-.15-.37-.24-.77-.24-1.19s.08-.8.23-1.16l.02-.02c.15-.38.39-.72.68-1.01.29-.29.63-.51,1.01-.68.37-.15.77-.24,1.19-.24s.81.09,1.19.24c.38.15.73.39,1.01.68.27.29.5.64.66,1.02h0ZM40.91,75.05h7.36c-.12.29-.24.57-.33.86-.22.64-.37,1.27-.47,1.91h-6.55c-.06.11-.11.2-.17.3-.11.19-.26.36-.41.51-.29.29-.63.51-1.01.68-.37.15-.77.24-1.19.24s-.8-.08-1.16-.23h-.03c-.38-.15-.72-.39-1.01-.68-.29-.29-.51-.63-.68-1.01-.15-.37-.24-.77-.24-1.19s.09-.81.24-1.19c.15-.38.39-.73.68-1.01.29-.29.63-.51,1.01-.68.37-.15.77-.24,1.19-.24s.8.08,1.16.23h.02c.38.16.72.4,1.01.68.15.15.29.31.4.5l.02.02c.06.1.11.2.17.3h0ZM38.28,82.63h9.57c.3.94.73,1.87,1.28,2.73h0s.02.04.02.04h-9.49v9.04c.08.05.15.1.24.15.15.11.3.23.43.36.29.29.51.63.68,1.01.15.37.24.77.24,1.19s-.09.82-.24,1.19c-.15.38-.39.72-.68,1.01-.29.29-.63.51-1.01.68-.37.15-.77.24-1.19.24s-.81-.09-1.19-.24c-.38-.15-.73-.39-1.01-.68-.29-.3-.51-.65-.68-1.03-.15-.37-.24-.77-.24-1.19s.08-.8.23-1.16v-.02c.16-.38.4-.72.68-1.01.17-.17.37-.33.59-.46.11-.07.25-.14.37-.2v-10.26c0-.38.15-.73.41-.98.25-.24.6-.4.99-.4h0ZM49.14,89.31h2.58c-.09.51-.13,1.03-.15,1.52-.02.42,0,.84.02,1.25h-1.08v4.09c.11.06.21.11.31.18.19.11.36.26.52.42h0c.29.29.51.63.68,1.01.15.37.24.77.24,1.19s-.09.81-.24,1.19c-.15.37-.37.7-.65.99l-.02.02c-.29.29-.63.51-1.01.68-.37.15-.77.24-1.19.24s-.82-.09-1.19-.24c-.37-.15-.7-.37-.99-.66l-.02-.02c-.29-.29-.51-.61-.67-.99v-.02c-.15-.37-.24-.77-.24-1.19s.09-.82.24-1.19c.15-.37.37-.7.65-.99l.02-.02c.15-.15.31-.29.5-.41.1-.07.19-.11.29-.16v-5.5c0-.38.15-.73.41-.98.25-.27.59-.42.99-.42h0Z"/>
</svg>